TITLE ""
FILE "2Q_t_0988-1000.mp3" MP3
  TRACK 01 AUDIO
    TITLE "2Q_t_0988-1000_01"
    INDEX 01 00:00:00
  TRACK 02 AUDIO
    TITLE "2Q_t_0988-1000_02"
    INDEX 01 00:00:16
  TRACK 03 AUDIO
    TITLE "2Q_t_0988-1000_03"
    INDEX 01 00:01:35
  TRACK 04 AUDIO
    TITLE "2Q_t_0988-1000_04"
    INDEX 01 00:02:11
  TRACK 05 AUDIO
    TITLE "2Q_t_0988-1000_05"
    INDEX 01 00:04:45
  TRACK 06 AUDIO
    TITLE "2Q_t_0988-1000_06"
    INDEX 01 00:05:15
  TRACK 07 AUDIO
    TITLE "2Q_t_0988-1000_07"
    INDEX 01 00:06:52
  TRACK 08 AUDIO
    TITLE "2Q_t_0988-1000_08"
    INDEX 01 00:07:24
  TRACK 09 AUDIO
    TITLE "2Q_t_0988-1000_09"
    INDEX 01 00:09:13
  TRACK 10 AUDIO
    TITLE "2Q_t_0988-1000_10"
    INDEX 01 00:09:56
  TRACK 11 AUDIO
    TITLE "2Q_t_0988-1000_11"
    INDEX 01 00:11:10
  TRACK 12 AUDIO
    TITLE "2Q_t_0988-1000_12"
    INDEX 01 00:11:65
  TRACK 13 AUDIO
    TITLE "2Q_t_0988-1000_13"
    INDEX 01 00:13:01
  TRACK 14 AUDIO
    TITLE "2Q_t_0988-1000_14"
    INDEX 01 00:13:48
  TRACK 15 AUDIO
    TITLE "2Q_t_0988-1000_15"
    INDEX 01 00:14:59
  TRACK 16 AUDIO
    TITLE "2Q_t_0988-1000_16"
    INDEX 01 00:15:33
  TRACK 17 AUDIO
    TITLE "2Q_t_0988-1000_17"
    INDEX 01 00:16:49
  TRACK 18 AUDIO
    TITLE "2Q_t_0988-1000_18"
    INDEX 01 00:17:19
  TRACK 19 AUDIO
    TITLE "2Q_t_0988-1000_19"
    INDEX 01 00:18:18
  TRACK 20 AUDIO
    TITLE "2Q_t_0988-1000_20"
    INDEX 01 00:18:73
  TRACK 21 AUDIO
    TITLE "2Q_t_0988-1000_21"
    INDEX 01 00:22:57
  TRACK 22 AUDIO
    TITLE "2Q_t_0988-1000_22"
    INDEX 01 00:23:27
  TRACK 23 AUDIO
    TITLE "2Q_t_0988-1000_23"
    INDEX 01 00:24:36
  TRACK 24 AUDIO
    TITLE "2Q_t_0988-1000_24"
    INDEX 01 00:25:12
  TRACK 25 AUDIO
    TITLE "2Q_t_0988-1000_25"
    INDEX 01 00:27:25
  TRACK 26 AUDIO
    TITLE "2Q_t_0988-1000_26"
    INDEX 01 00:27:70
  TRACK 27 AUDIO
    TITLE "2Q_t_0988-1000_27"
    INDEX 01 00:29:12
  TRACK 28 AUDIO
    TITLE "2Q_t_0988-1000_28"
    INDEX 01 00:29:63
  TRACK 29 AUDIO
    TITLE "2Q_t_0988-1000_29"
    INDEX 01 00:32:51
  TRACK 30 AUDIO
    TITLE "2Q_t_0988-1000_30"
    INDEX 01 00:33:22
  TRACK 31 AUDIO
    TITLE "2Q_t_0988-1000_31"
    INDEX 01 00:34:54
  TRACK 32 AUDIO
    TITLE "2Q_t_0988-1000_32"
    INDEX 01 00:35:30
  TRACK 33 AUDIO
    TITLE "2Q_t_0988-1000_33"
    INDEX 01 00:37:02
  TRACK 34 AUDIO
    TITLE "2Q_t_0988-1000_34"
    INDEX 01 00:37:47
  TRACK 35 AUDIO
    TITLE "2Q_t_0988-1000_35"
    INDEX 01 00:38:46
  TRACK 36 AUDIO
    TITLE "2Q_t_0988-1000_36"
    INDEX 01 00:39:18
  TRACK 37 AUDIO
    TITLE "2Q_t_0988-1000_37"
    INDEX 01 00:40:47
  TRACK 38 AUDIO
    TITLE "2Q_t_0988-1000_38"
    INDEX 01 00:41:19
  TRACK 39 AUDIO
    TITLE "2Q_t_0988-1000_39"
    INDEX 01 00:42:24
  TRACK 40 AUDIO
    TITLE "2Q_t_0988-1000_40"
    INDEX 01 00:42:69
  TRACK 41 AUDIO
    TITLE "2Q_t_0988-1000_41"
    INDEX 01 00:44:13
  TRACK 42 AUDIO
    TITLE "2Q_t_0988-1000_42"
    INDEX 01 00:44:62
  TRACK 43 AUDIO
    TITLE "2Q_t_0988-1000_43"
    INDEX 01 00:46:03
  TRACK 44 AUDIO
    TITLE "2Q_t_0988-1000_44"
    INDEX 01 00:46:46
  TRACK 45 AUDIO
    TITLE "2Q_t_0988-1000_45"
    INDEX 01 00:47:71
  TRACK 46 AUDIO
    TITLE "2Q_t_0988-1000_46"
    INDEX 01 00:48:49
  TRACK 47 AUDIO
    TITLE "2Q_t_0988-1000_47"
    INDEX 01 00:50:67
  TRACK 48 AUDIO
    TITLE "2Q_t_0988-1000_48"
    INDEX 01 00:51:37
  TRACK 49 AUDIO
    TITLE "2Q_t_0988-1000_49"
    INDEX 01 00:52:68
  TRACK 50 AUDIO
    TITLE "2Q_t_0988-1000_50"
    INDEX 01 00:53:42
  TRACK 51 AUDIO
    TITLE "2Q_t_0988-1000_51"
    INDEX 01 00:55:68
  TRACK 52 AUDIO
    TITLE "2Q_t_0988-1000_52"
    INDEX 01 00:56:40
  TRACK 53 AUDIO
    TITLE "2Q_t_0988-1000_53"
    INDEX 01 00:57:55
  TRACK 54 AUDIO
    TITLE "2Q_t_0988-1000_54"
    INDEX 01 00:58:31
  TRACK 55 AUDIO
    TITLE "2Q_t_0988-1000_55"
    INDEX 01 01:01:00
